<svg xmlns="http://www.w3.org/2000/svg" style="display: none;">
  
    <symbol id="icon-graph" viewBox="0 0 512 512">
      <path d="m491 469l-43 0l0-21l-21 0l0 21l-43 0l0-21l-21 0l0 21l-43 0l0-21l-21 0l0 21l-43 0l0-21l-21 0l0 21l-43 0l0-21l-21 0l0 21l-94 0l112-67l56-163l83 145l160-266l-37-22l-123 204l-93-164l-81 237l-111 67l0-440l-43 0l0 512l512 0l0-64l-21 0z m0-469l21 0l0 21l-21 0z m-64 0l21 0l0 21l-21 0z m-64 0l21 0l0 21l-21 0z m-64 0l21 0l0 21l-21 0z m-64 0l21 0l0 21l-21 0z m-64 0l21 0l0 21l-21 0z m-64 0l21 0l0 21l-21 0z m-64 0l21 0l0 21l-21 0z m448 64l21 0l0 21l-21 0z m-64 0l21 0l0 21l-21 0z m-64 0l21 0l0 21l-21 0z m-64 0l21 0l0 21l-21 0z m-64 0l21 0l0 21l-21 0z m-64 0l21 0l0 21l-21 0z m-64 0l21 0l0 21l-21 0z m-64 0l21 0l0 21l-21 0z m448 64l21 0l0 21l-21 0z m-128 0l21 0l0 21l-21 0z m-64 0l21 0l0 21l-21 0z m-128 0l21 0l0 21l-21 0z m-64 0l21 0l0 21l-21 0z m-64 0l21 0l0 21l-21 0z m448 64l21 0l0 21l-21 0z m-192 0l21 0l0 21l-21 0z m-128 0l21 0l0 21l-21 0z m-64 0l21 0l0 21l-21 0z m-64 0l21 0l0 21l-21 0z m448 64l21 0l0 21l-21 0z m-64 0l21 0l0 21l-21 0z m-320 0l21 0l0 21l-21 0z m-64 0l21 0l0 21l-21 0z m448 64l21 0l0 21l-21 0z m-64 0l21 0l0 21l-21 0z m-192 0l21 0l0 21l-21 0z m-128 0l21 0l0 21l-21 0z m-64 0l21 0l0 21l-21 0z m448 64l21 0l0 21l-21 0z m-64 0l21 0l0 21l-21 0z m-64 0l21 0l0 21l-21 0z m-128 0l21 0l0 21l-21 0z m-192 0l21 0l0 21l-21 0z"/>
    </symbol>
  
    <symbol id="icon-briefcase" viewBox="0 0 512 512">
      <path d="m448 96l-128 0 0-33c0-17-14-31-31-31l-66 0c-17 0-31 14-31 31l0 33-128 0c-18 0-32 14-32 32l0 256c0 18 14 32 32 32l384 0c18 0 32-14 32-32l0-256c0-18-14-32-32-32z m-224-24c0-4 4-8 8-8l48 0c4 0 8 4 8 8l0 24-64 0z m224 184l-160 0 0 32-64 0 0-32-160 0 0-128 32 0 0 96 320 0 0-96 32 0z"/>
    </symbol>
  
    <symbol id="icon-circuit-board" viewBox="0 0 512 512">
      <path d="m160 128c18 0 32 14 32 32 0 18-14 32-32 32-18 0-32-14-32-32 0-18 14-32 32-32z m320 256c0 53-43 96-96 96l-224 0 96-96 41 0c11 19 31 32 55 32 35 0 64-29 64-64 0-35-29-64-64-64-24 0-44 13-55 32l-73 0-146 146c-28-17-46-47-46-82l0-256c0-53 43-96 96-96l0 73c-19 11-32 31-32 55 0 35 29 64 64 64 24 0 44-13 55-32l82 0c11 19 31 32 55 32 35 0 64-29 64-64 0-35-29-64-64-64-24 0-44 13-55 32l-81 0c-6-10-14-18-24-23l0-73 192 0c53 0 96 43 96 96z m-160-32c0-18 14-32 32-32 18 0 32 14 32 32 0 18-14 32-32 32-18 0-32-14-32-32z m0-192c0-18 14-32 32-32 18 0 32 14 32 32 0 18-14 32-32 32-18 0-32-14-32-32z"/>
    </symbol>
  
    <symbol id="icon-graph-1" viewBox="0 0 512 512">
      <path d="m352 128l-96 0 0 320 96 0z m128 96l-96 0 0 224 96 0z m-448 256l0-64 32 0 0-32-32 0 0-64 32 0 0-32-32 0 0-64 32 0 0-32-32 0 0-64 32 0 0-32-32 0 0-64 32 0 0-32-64 0 0 512 512 0 0-32z m192-192l-96 0 0 160 96 0z"/>
    </symbol>
  
    <symbol id="icon-organization" viewBox="0 0 512 512">
      <path d="m416 192l-320 0c-35 0-64 29-64 64l0 32c0 24 13 44 32 55l0 105 128 0 0 64 128 0 0-64 128 0 0-105c19-11 32-31 32-55l0-32c0-35-29-64-64-64z m-256 224l-64 0 0-128-32 0 0-32c0-18 14-32 32-32l41 0c-6 9-9 20-9 32l0 64c0 24 13 44 32 55z m160-64l0-64-32 0 0 192-64 0 0-192-32 0 0 64c-18 0-32-14-32-32l0-64c0-18 14-32 32-32l128 0c18 0 32 14 32 32l0 64c0 18-14 32-32 32z m128-64l-32 0 0 128-64 0 0-41c19-11 32-31 32-55l0-64c0-12-3-23-9-32l41 0c18 0 32 14 32 32z m-264-129c17 20 43 33 72 33 29 0 55-13 72-33 11 19 32 33 56 33 35 0 64-29 64-64 0-35-29-64-64-64-13 0-25 4-35 10-10-42-47-74-93-74-46 0-83 32-93 74-10-6-22-10-35-10-35 0-64 29-64 64 0 35 29 64 64 64 24 0 45-14 56-33z m200-63c18 0 32 14 32 32 0 18-14 32-32 32-18 0-32-14-32-32 0-18 14-32 32-32z m-128-64c35 0 64 29 64 64 0 35-29 64-64 64-35 0-64-29-64-64 0-35 29-64 64-64z m-128 128c-18 0-32-14-32-32 0-18 14-32 32-32 18 0 32 14 32 32 0 18-14 32-32 32z"/>
    </symbol>
  
    <symbol id="icon-link-streamline" viewBox="0 0 512 512">
      <path d="m256 347l-68 67c-10 10-23 16-38 16c-14 0-27-6-37-16l-15-15c-21-20-21-54 0-75l98-98c10-10 23-16 37-16c15 0 28 6 38 16l15 15c4 4 11 4 15 0c4-4 4-11 0-15l-15-15c-14-14-33-22-53-22c-20 0-38 8-52 22l-98 98c-30 29-30 76 0 105l15 15c14 15 32 22 52 22c20 0 39-7 53-22l68-67c4-5 4-11 0-15c-4-5-11-5-15 0z m173-249l-15-15c-29-30-76-30-105 0l-68 67c-4 5-4 11 0 15c4 5 11 5 15 0l68-67c21-21 55-21 75 0l15 15c21 20 21 54 0 75l-98 98c-10 10-23 16-37 16c-15 0-28-6-38-16c-4-4-11-4-15 0c-4 4-4 11 0 15c14 14 33 22 53 22c20 0 38-8 52-22l98-98c30-29 30-76 0-105z"/>
    </symbol>
  
    <symbol id="icon-music-speaker-streamline" viewBox="0 0 512 512">
      <path d="m469 64c0 12-9 21-21 21c-12 0-21-9-21-21c0-12 9-21 21-21c12 0 21 9 21 21z m-384 0c0 12-9 21-21 21c-12 0-21-9-21-21c0-12 9-21 21-21c12 0 21 9 21 21z m384 384c0 12-9 21-21 21c-12 0-21-9-21-21c0-12 9-21 21-21c12 0 21 9 21 21z m-384 0c0 12-9 21-21 21c-12 0-21-9-21-21c0-12 9-21 21-21c12 0 21 9 21 21z m171-245c-29 0-53 24-53 53c0 29 24 53 53 53c29 0 53-24 53-53c0-29-24-53-53-53z m0 85c-18 0-32-14-32-32c0-18 14-32 32-32c18 0 32 14 32 32c0 18-14 32-32 32z m0-224c-106 0-192 86-192 192c0 106 86 192 192 192c106 0 192-86 192-192c0-106-86-192-192-192z m0 363c-94 0-171-77-171-171c0-94 77-171 171-171c94 0 171 77 171 171c0 94-77 171-171 171z m205-57c19-35 30-74 30-114c0-40-11-79-30-114l32-33c12-12 19-28 19-45c0-17-7-33-19-45c-12-12-28-19-45-19c-17 0-33 7-45 19l-33 32c-35-19-74-30-114-30c-40 0-79 11-114 30l-33-32c-12-12-28-19-45-19c-17 0-33 7-45 19c-12 12-19 28-19 45c0 17 7 33 19 45l32 33c-19 35-30 74-30 114c0 40 11 79 30 114l-32 33c-12 12-19 28-19 45c0 17 7 33 19 45c12 12 28 19 45 19c17 0 33-7 45-19l33-32c35 19 74 30 114 30c40 0 79-11 114-30l33 32c12 12 28 19 45 19c17 0 33-7 45-19c12-12 19-28 19-45c0-17-7-33-19-45z m17 108c-8 8-19 13-30 13c-11 0-22-5-30-13l-44-44l-8 4c-33 21-71 31-110 31c-39 0-77-10-110-31l-8-4l-44 44c-8 8-19 13-30 13c-11 0-22-5-30-13c-8-8-13-19-13-30c0-11 5-22 13-30l44-44l-4-8c-21-33-31-71-31-110c0-39 10-77 31-110l4-8l-44-44c-8-8-13-19-13-30c0-11 5-22 13-30c8-8 19-13 30-13c11 0 22 5 30 13l44 44l8-4c33-21 71-31 110-31c39 0 77 10 110 31l8 4l44-44c8-8 19-13 30-13c11 0 22 5 30 13c8 8 13 19 13 30c0 11-5 22-13 30l-44 44l4 8c21 33 31 71 31 110c0 39-10 77-31 110l-4 8l44 44c8 8 13 19 13 30c0 11-5 22-13 30z"/>
    </symbol>
  
    <symbol id="icon-bars" viewBox="0 0 512 512">
      <path d="m491 469l0-21l-22 0l0 21l-21 0l0-213l-107 0l0 213l-21 0l0-426l-107 0l0 426l-21 0l0-256l-21 0l0-21l-22 0l0 21l-42 0l0-21l-22 0l0 277l-42 0l0-469l-43 0l0 512l512 0l0-43z m-342 0l-21 0l0-213l21 0z m128 0l-21 0l0-384l21 0z m128 0l-21 0l0-170l21 0z m-320-469l22 0l0 21l-22 0z m64 0l22 0l0 21l-22 0z m64 0l22 0l0 21l-22 0z m64 0l22 0l0 21l-22 0z m64 0l22 0l0 21l-22 0z m64 0l22 0l0 21l-22 0z m64 0l22 0l0 21l-22 0z m0 64l22 0l0 21l-22 0z m-64 0l22 0l0 21l-22 0z m-64 0l22 0l0 21l-22 0z m0 64l22 0l0 21l-22 0z m64 0l22 0l0 21l-22 0z m64 0l22 0l0 21l-22 0z m0 64l22 0l0 21l-22 0z m-64 0l22 0l0 21l-22 0z m-64 0l22 0l0 21l-22 0z m128 64l22 0l0 21l-22 0z m0 64l22 0l0 21l-22 0z m0 64l22 0l0 21l-22 0z m-320-320l22 0l0 21l-22 0z m0 64l22 0l0 21l-22 0z m-64 0l22 0l0 21l-22 0z m0-64l22 0l0 21l-22 0z"/>
    </symbol>
  
    <symbol id="icon-crop" viewBox="0 0 512 512">
      <path d="m405 277l0-170l-170 0l0-86l-128 0l0 86l-86 0l0 128l86 0l0 170l170 0l0 86l128 0l0-86l86 0l0-128z m-192-128l150 0l0 150l-43 0l0-107l-107 0z m64 86l0 42l-42 0l0-42z m-149-43l-64 0l0-43l64 0z m235 256l-43 0l0-64l43 0z m85-85l-299 0l0-299l43 0l0 256l256 0z"/>
    </symbol>
  
</svg>
